{
    "asset" : {
        "generator" : "Khronos glTF Blender I/O v1.8.19",
        "version" : "2.0"
    },
    "scene" : 0,
    "scenes" : [
        {
            "name" : "Scene",
            "nodes" : [
                0
            ]
        }
    ],
    "nodes" : [
        {
            "mesh" : 0,
            "name" : "10",
            "rotation" : [
                0.008988439105451107,
                0,
                0,
                0.9999597072601318
            ],
            "translation" : [
                0,
                -0.2664557099342346,
                0
            ]
        }
    ],
    "materials" : [
        {
            "doubleSided" : true,
            "name" : "red2",
            "pbrMetallicRoughness" : {
                "baseColorFactor" : [
                    0.784313976764679,
                    0.17531700432300568,
                    0.17531700432300568,
                    1
                ],
                "metallicFactor" : 0,
                "roughnessFactor" : 0.873508870601654
            }
        },
        {
            "doubleSided" : true,
            "name" : "red1",
            "pbrMetallicRoughness" : {
                "baseColorFactor" : [
                    0.784313976764679,
                    0.17531700432300568,
                    0.17531700432300568,
                    1
                ],
                "metallicFactor" : 0,
                "roughnessFactor" : 0.873508870601654
            }
        },
        {
            "doubleSided" : true,
            "name" : "grip",
            "pbrMetallicRoughness" : {
                "baseColorFactor" : [
                    0.2901960015296936,
                    0.2901960015296936,
                    0.2901960015296936,
                    1
                ],
                "metallicFactor" : 0,
                "roughnessFactor" : 0.9105572700500488
            }
        }
    ],
    "meshes" : [
        {
            "name" : "10",
            "primitives" : [
                {
                    "attributes" : {
                        "POSITION" : 0,
                        "NORMAL" : 1
                    },
                    "indices" : 2,
                    "material" : 0
                },
                {
                    "attributes" : {
                        "POSITION" : 3,
                        "NORMAL" : 4
                    },
                    "indices" : 5,
                    "material" : 1
                },
                {
                    "attributes" : {
                        "POSITION" : 6,
                        "NORMAL" : 7
                    },
                    "indices" : 8,
                    "material" : 2
                }
            ]
        }
    ],
    "accessors" : [
        {
            "bufferView" : 0,
            "componentType" : 5126,
            "count" : 16939,
            "max" : [
                3.7750000953674316,
                0,
                2.487499952316284
            ],
            "min" : [
                -3.7750000953674316,
                -2.755000114440918,
                -2.5374999046325684
            ],
            "type" : "VEC3"
        },
        {
            "bufferView" : 1,
            "componentType" : 5126,
            "count" : 16939,
            "type" : "VEC3"
        },
        {
            "bufferView" : 2,
            "componentType" : 5123,
            "count" : 83760,
            "type" : "SCALAR"
        },
        {
            "bufferView" : 3,
            "componentType" : 5126,
            "count" : 6552,
            "max" : [
                2.919980049133301,
                -0.8650000095367432,
                1.8824800252914429
            ],
            "min" : [
                -2.919980049133301,
                -2.325000047683716,
                -1.932479977607727
            ],
            "type" : "VEC3"
        },
        {
            "bufferView" : 4,
            "componentType" : 5126,
            "count" : 6552,
            "type" : "VEC3"
        },
        {
            "bufferView" : 5,
            "componentType" : 5123,
            "count" : 25272,
            "type" : "SCALAR"
        },
        {
            "bufferView" : 6,
            "componentType" : 5126,
            "count" : 39339,
            "max" : [
                3.1724300384521484,
                0.0062494599260389805,
                2.215329885482788
            ],
            "min" : [
                -3.1724300384521484,
                -0.29625099897384644,
                -2.215329885482788
            ],
            "type" : "VEC3"
        },
        {
            "bufferView" : 7,
            "componentType" : 5126,
            "count" : 39339,
            "type" : "VEC3"
        },
        {
            "bufferView" : 8,
            "componentType" : 5123,
            "count" : 216216,
            "type" : "SCALAR"
        }
    ],
    "bufferViews" : [
        {
            "buffer" : 0,
            "byteLength" : 203268,
            "byteOffset" : 0
        },
        {
            "buffer" : 0,
            "byteLength" : 203268,
            "byteOffset" : 203268
        },
        {
            "buffer" : 0,
            "byteLength" : 167520,
            "byteOffset" : 406536
        },
        {
            "buffer" : 0,
            "byteLength" : 78624,
            "byteOffset" : 574056
        },
        {
            "buffer" : 0,
            "byteLength" : 78624,
            "byteOffset" : 652680
        },
        {
            "buffer" : 0,
            "byteLength" : 50544,
            "byteOffset" : 731304
        },
        {
            "buffer" : 0,
            "byteLength" : 472068,
            "byteOffset" : 781848
        },
        {
            "buffer" : 0,
            "byteLength" : 472068,
            "byteOffset" : 1253916
        },
        {
            "buffer" : 0,
            "byteLength" : 432432,
            "byteOffset" : 1725984
        }
    ],
    "buffers" : [
        {
            "byteLength" : 2158416,
            "uri" : "data:application/octet-stream;base64,"
        }
    ]
}
